<svg xmlns="http://www.w3.org/2000/svg" xmlns:xlink="http://www.w3.org/1999/xlink" version="1.1" x="0px" y="0px" viewBox="0 0 100 125" enable-background="new 0 0 100 100" xml:space="preserve">
<g>
  <path d="M20.1,80.7h9.3c1,0,1.7-0.8,1.7-1.7V21.9c0-1-0.8-1.7-1.7-1.7h-9.3c-1,0-1.7,0.8-1.7,1.7V79C18.3,79.9,19.1,80.7,20.1,80.7   z M20.3,22.1h8.8v56.5h-8.8V22.1z"/>
  <path d="M71.3,80.7h9.3c1,0,1.7-0.8,1.7-1.7V63.6c0-1-0.8-1.7-1.7-1.7h-9.3c-1,0-1.7,0.8-1.7,1.7V79C69.6,79.9,70.3,80.7,71.3,80.7   z M71.6,63.9h8.8v14.8h-8.8V63.9z"/>
  <path d="M37.1,80.7h9.3c1,0,1.7-0.8,1.7-1.7V42.7c0-1-0.8-1.7-1.7-1.7h-9.3c-1,0-1.7,0.8-1.7,1.7V79C35.4,79.9,36.2,80.7,37.1,80.7   z"/>
  <path d="M89.4,85.3l-3.2-2.2c-0.2-0.1-0.4-0.1-0.5,0c-0.2,0.1-0.3,0.3-0.3,0.4v1.2H14V15.8h1.2c0.2,0,0.4-0.1,0.4-0.3   c0.1-0.2,0.1-0.4,0-0.5l-2.2-3.2c-0.2-0.3-0.6-0.3-0.8,0l-2.2,3.2c-0.1,0.2-0.1,0.4,0,0.5c0.1,0.2,0.3,0.3,0.4,0.3H12v69.9   c0,0.6,0.4,1,1,1h72.4v1.2c0,0.2,0.1,0.4,0.3,0.4c0.1,0,0.2,0.1,0.2,0.1c0.1,0,0.2,0,0.3-0.1l3.2-2.2c0.1-0.1,0.2-0.2,0.2-0.4   S89.6,85.4,89.4,85.3z"/>
  <path d="M54.2,80.7h9.3c1,0,1.7-0.8,1.7-1.7V31.7c0-1-0.8-1.7-1.7-1.7h-9.3c-1,0-1.7,0.8-1.7,1.7V79C52.5,79.9,53.3,80.7,54.2,80.7   z M63.3,75.8l-2.9,2.9h-4.2l7.1-7.1V75.8z M63.3,69.5l-8.8,8.8v-5.1l8.8-8.8V69.5z M63.3,56l-8.8,8.8v-4.2l8.8-8.8V56z M63.3,49.6   l-8.8,8.8v-4.5l8.8-8.8V49.6z M63.3,43l-8.8,8.8v-4.1l8.8-8.8V43z M63.3,36.8l-8.8,8.8v-4.2l8.8-8.8V36.8z M54.5,39.3v-3.9l3.3-3.4   h3.9L54.5,39.3z M54.5,66.9l8.8-8.8v4.2L54.5,71V66.9z M62.5,78.7l0.8-0.8v0.8H62.5z M55.7,32l-1.2,1.2V32H55.7z"/>
</g>
</svg>
